<svg width="200" height="100" viewBox="0 0 200 100" xmlns="http://www.w3.org/2000/svg" font-family="Arial, sans-serif">
  <rect width="200" height="100" rx="10" ry="10" fill="#f9f9f9" stroke="#ddd" stroke-width="1"/>
  
  <!-- Product Row 1 -->
  <rect x="10" y="10" width="20" height="20" rx="3" ry="3" fill="#00bcd4"/>
  <rect x="35" y="12" width="70" height="5" fill="#00796b"/>
  <rect x="35" y="19" width="50" height="5" fill="#009688"/>
  <rect x="160" y="10" width="30" height="20" rx="4" ry="4" fill="#ffc107"/>
  <text x="175" y="23" font-size="12" font-weight="bold" fill="#333" text-anchor="middle">$</text>

  <!-- Product Row 2 -->
  <rect x="10" y="40" width="20" height="20" rx="3" ry="3" fill="#00bcd4"/>
  <rect x="35" y="42" width="70" height="5" fill="#00796b"/>
  <rect x="35" y="49" width="50" height="5" fill="#009688"/>
  <rect x="160" y="40" width="30" height="20" rx="4" ry="4" fill="#ffc107"/>
  <text x="175" y="53" font-size="12" font-weight="bold" fill="#333" text-anchor="middle">$</text>

  <!-- Product Row 3 -->
  <rect x="10" y="70" width="20" height="20" rx="3" ry="3" fill="#00bcd4"/>
  <rect x="35" y="72" width="70" height="5" fill="#00796b"/>
  <rect x="35" y="79" width="50" height="5" fill="#009688"/>
  <rect x="160" y="70" width="30" height="20" rx="4" ry="4" fill="#ffc107"/>
  <text x="175" y="83" font-size="12" font-weight="bold" fill="#333" text-anchor="middle">$</text>
</svg>
